<?xml version="1.0" encoding="utf-8"?>
<!-- Generator: Adobe Illustrator 16.0.0, SVG Export Plug-In . SVG Version: 6.00 Build 0)  -->
<!DOCTYPE svg PUBLIC "-//W3C//DTD SVG 1.1//EN" "http://www.w3.org/Graphics/SVG/1.1/DTD/svg11.dtd">
<svg version="1.1" id="圖層_1" xmlns="http://www.w3.org/2000/svg" xmlns:xlink="http://www.w3.org/1999/xlink" x="0px" y="0px"
	 width="128px" height="128px" viewBox="0 0 128 128" enable-background="new 0 0 128 128" xml:space="preserve">
<g>
	<rect x="-1.506" y="-1.506" fill="#1E1E1E" width="131.01" height="131.01"/>
	<g>
		<polygon fill="#F4EBE9" points="64,27.677 32.025,46.138 32.026,83.06 64,101.52 95.974,83.06 95.974,46.138 		"/>
		<polygon fill="#4A4240" points="41.305,45.314 50.328,50.652 55.435,48 60.101,31.558 51.402,26.48 46.778,26.971 		"/>
		<polygon fill="#4A4240" points="55.718,53.358 64.74,58.696 69.847,56.043 74.515,39.602 65.814,34.524 61.191,35.014 		"/>
		<polygon fill="#E5DFDF" points="95.974,46.138 64,64 64,101.52 95.974,83.06 		"/>
	</g>
	<g opacity="0.2">
		<defs>
			<path id="SVGID_1_" opacity="0.2" d="M73.32,69.43c-23.579,5.285-45.978,5.892-63.549,2.609v28.069
				c0,9.983,8.093,18.077,18.077,18.077h72.304c9.982,0,18.076-8.094,18.076-18.077V53.146C105.563,59.933,90.23,65.639,73.32,69.43
				z"/>
		</defs>
		<clipPath id="SVGID_2_">
			<use xlink:href="#SVGID_1_"  overflow="visible"/>
		</clipPath>
		<radialGradient id="SVGID_3_" cx="63.999" cy="63.999" r="54.2207" gradientUnits="userSpaceOnUse">
			<stop  offset="0" style="stop-color:#FFFFFF"/>
			<stop  offset="1" style="stop-color:#FFFFFF;stop-opacity:0"/>
		</radialGradient>
		<circle clip-path="url(#SVGID_2_)" fill="url(#SVGID_3_)" cx="63.999" cy="64" r="54.22"/>
	</g>
</g>
</svg>
