<?xml version="1.0" encoding="utf-8"?>
<!-- Generator: Adobe Illustrator 16.0.0, SVG Export Plug-In . SVG Version: 6.00 Build 0)  -->
<!DOCTYPE svg PUBLIC "-//W3C//DTD SVG 1.1//EN" "http://www.w3.org/Graphics/SVG/1.1/DTD/svg11.dtd">
<svg version="1.1" id="圖層_1" xmlns="http://www.w3.org/2000/svg" xmlns:xlink="http://www.w3.org/1999/xlink" x="0px" y="0px"
	 width="128px" height="128px" viewBox="0 0 128 128" enable-background="new 0 0 128 128" xml:space="preserve">
<g id="Find">
	<path fill="#4c9ed9" d="M54.173,85.006c-17.552,0-31.832-14.279-31.832-31.833c0-17.552,14.28-31.832,31.832-31.832
		c17.553,0,31.833,14.28,31.833,31.832C86.006,70.727,71.727,85.006,54.173,85.006z M54.173,29.341
		c-13.141,0-23.832,10.691-23.832,23.832s10.691,23.833,23.832,23.833s23.833-10.691,23.833-23.833S67.314,29.341,54.173,29.341z"/>
	
		<rect fill="#4c9ed9" x="77.083" y="86.757" transform="matrix(0.7071 0.7071 -0.7071 0.7071 92.0497 -38.714)" width="31.347" height="9.999"/>
</g>
</svg>
