<svg id="圖層_1" data-name="圖層 1" xmlns="http://www.w3.org/2000/svg" viewBox="0 0 1024 1024"><defs><style>.cls-1{fill:#4c9ed9;}.cls-2{fill:#fff;}</style></defs><title>Icon</title><rect class="cls-1" width="1024" height="1024" rx="256" ry="256"/><g id="Blue"><path class="cls-2" d="M132,465.62a106.64,106.64,0,0,1,27.1-24.55,109.58,109.58,0,0,1,39.7-15.28,113.15,113.15,0,0,1,48,1.94,116.07,116.07,0,0,1,47,25.09,119.14,119.14,0,0,1,37.13,62.74l.79,4.14.39,2.07.25,1.66,1,6.4a77.31,77.31,0,0,0,5.9,19.8,79.57,79.57,0,0,0,26.34,32.15,77.91,77.91,0,0,0,39.63,14.1c1.77.16,3.57.13,5.35.17.87,0,1.53-.07,2.31-.08l1.12,0,1.69-.13,3.58-.29c-1.15.08-.13,0-.3,0l.34,0,.67-.1,1.33-.18c1.79-.22,3.54-.64,5.31-1a86.24,86.24,0,0,0,10.32-3,83.71,83.71,0,0,0,9.79-4.45,76.46,76.46,0,0,0,30.15-30.29,84,84,0,0,0,4.48-9.86,73.44,73.44,0,0,0,4.4-21.13c0-1.78.16-3.76.09-5.1v-1.12c0-.21,0-.31,0-.62l-.06-.92-.24-3.69-.22-3.87c-.11-1.55-.16-3.1-.16-4.66-.07-3.11,0-6.22.19-9.33a126.17,126.17,0,0,1,15.31-53.38A125.4,125.4,0,0,1,586.8,380c1.4-.31,3.11-.55,4.73-.79l2.46-.36,1.22-.16.93-.1,3.57-.33,1.57-.14,1.11-.06,2.23-.1A121.2,121.2,0,0,1,732.56,488.41l.48,6.32c.06,1.73.36,3.41.53,5.11a85.69,85.69,0,0,0,2,10,80.64,80.64,0,0,0,19.22,34.55,84.72,84.72,0,0,0,31.67,21.33,86.41,86.41,0,0,0,17.88,4.76,85.18,85.18,0,0,0,8.81.92c1.25.14,3.07.1,4.78.11h2.15l2.22-.08a90.27,90.27,0,0,0,32.8-7.75,93.26,93.26,0,0,0,25.49-16.88,98.36,98.36,0,0,0,16.88-20.71,104.86,104.86,0,0,0,9.29-20,98.06,98.06,0,0,0,3.92-16.2c.64-4.33,1-7.68,1.1-10.07-1-67.33-5.62-107.48-16.26-148.15-14.63-55.53-40.74-100.72-78.7-136.08-23.15-21.56-45.37-36.22-74.26-49.33-42-19-82-28.29-142.41-32.77-27.59-2.07-152.41-1.9-179.81.17-36.85,2.76-75.56,9.83-104.82,18.8-6.48,2.07-21.85,8.28-34.07,13.8-77.59,35-130.19,98.66-153,185.41-12.1,46.25-16.39,91.84-16.48,177.5A99.11,99.11,0,0,1,116.92,492,105.07,105.07,0,0,1,132,465.62Z"/><path class="cls-2" d="M907.07,530.77a104.45,104.45,0,0,1-15,26.41,106.4,106.4,0,0,1-27.1,24.53A109.83,109.83,0,0,1,825.31,597l-2.82.48-2.93.39c-1.69.22-3.3.45-5.5.56s-4.18.27-6.12.27-4,.06-6-.05a115.22,115.22,0,0,1-24.61-3.49,110.57,110.57,0,0,1-24.44-9.43A115.55,115.55,0,0,1,730.2,570.2a112.47,112.47,0,0,1-19.08-21.47,115.84,115.84,0,0,1-13.68-26.6,114.49,114.49,0,0,1-4.31-14.77c-.48-2.53-1.07-5.07-1.39-7.65l-.55-3.87c.09.88,0,0,0,.11l-.06-.4-.13-.81-.24-1.61a77.76,77.76,0,0,0-6-19.64,78.66,78.66,0,0,0-26.55-31.81,77.35,77.35,0,0,0-81.32-4.19A76.24,76.24,0,0,0,547,468a73.22,73.22,0,0,0-8.63,31.06c-.08,1.8-.13,3.61-.06,5.43a24.75,24.75,0,0,0,.12,2.72l.23,3.5.22,3.69.05.92,0,1.23,0,2.57c.09,3.58-.11,6.52-.24,9.67a126.82,126.82,0,0,1-7.9,36.39,136.71,136.71,0,0,1-7.85,16.87,125.27,125.27,0,0,1-52.38,50.48,135.2,135.2,0,0,1-16.8,7.13,131.19,131.19,0,0,1-17.55,4.56c-3,.47-5.93,1-8.91,1.26l-5.09.47-3.59.15-1.88.06-2.46,0c-1.61,0-3.34,0-4.85-.05-3-.16-5.94-.28-8.89-.65a122.67,122.67,0,0,1-102.39-79.7,120.45,120.45,0,0,1-6.83-31.2c-.17-2.17-.33-4.35-.5-6.51l-.13-1.55-.14-1.11-.25-2.22a90.49,90.49,0,0,0-2-10,81.77,81.77,0,0,0-19.29-34.62,84.72,84.72,0,0,0-31.61-21.44,87.17,87.17,0,0,0-35.82-5.79,90.23,90.23,0,0,0-32.74,7.74A93.36,93.36,0,0,0,143.43,476a98,98,0,0,0-16.88,20.7,104.58,104.58,0,0,0-9.29,20,98.36,98.36,0,0,0-3.93,16.19c-.66,4.49-1,8-1.12,10.38,1,67.74,5.6,108,16.27,148.82,14.63,55.54,40.74,100.73,78.7,136.09,23.15,21.56,45.37,36.22,74.26,49.32,42,19,82,28.29,142.41,32.77,30.92,2.25,145.37,2.25,176.3,0,60.37-4.48,100.36-13.79,142.4-32.77,77.59-35,130.19-98.65,153-185.41,12.14-46.42,16.42-92.19,16.48-178.49A100.19,100.19,0,0,1,907.07,530.77Z"/></g></svg>