<?xml version="1.0" encoding="utf-8"?>
<!-- Generator: Adobe Illustrator 16.0.0, SVG Export Plug-In . SVG Version: 6.00 Build 0)  -->
<!DOCTYPE svg PUBLIC "-//W3C//DTD SVG 1.1//EN" "http://www.w3.org/Graphics/SVG/1.1/DTD/svg11.dtd">
<svg version="1.1" id="圖層_1" xmlns="http://www.w3.org/2000/svg" xmlns:xlink="http://www.w3.org/1999/xlink" x="0px" y="0px"
	 width="1275.59px" height="1275.59px" viewBox="-42.521 204.094 1275.59 1275.59"
	 enable-background="new -42.521 204.094 1275.59 1275.59" xml:space="preserve">
<path fill="#FFFFFF" d="M1099.824,933.8c-5,90.96-8.569,181.92-15.229,272.87c-8.34,110.25-109.53,207.87-219.54,215.02
	c-50.48,3.33-100.96,1.431-151.44,1.431c-118.82,0.47-237.63,1.189-356.45-0.24c-102.39-1.19-177.87-48.101-225.01-139.3
	c-17.62-33.811-23.1-70.95-25-108.811c-4.29-67.86-7.86-135.96-11.43-204.06c6.31,1.46,12.51,2.359,18.57,2.569
	c-6.05-0.18-12.25-1.069-18.55-2.51c3.51,11.7,46.76,35.57,83.2,6.311c19.19-15.41,27.48-39.601,28.21-67.78l0.01-0.17
	c0.11-5.471,0.08-10.891,0.05-16.13c-0.04-6.71-0.08-13.051,0.16-19.181c1-20.949,17.06-35.02,39.98-35.02l0.33,0.01
	c20.92,0.13,37.83,15.79,38.53,35.66l0.06,2.24c0.47,17.01,1.18,42.689,23.44,61.51c14.42,12.43,31.66,18.729,51.24,18.729
	c10.75,0,22.15-1.909,34.83-5.829c29.49-9.131,46.4-34.79,46.4-70.421v-0.149c-0.18-31.45,13.51-53.23,41.77-66.56
	c11.11-5.21,22.1-7.84,32.68-7.84c15.91,0,31.42,5.99,46.09,17.81c17.31,13.95,25.84,32.97,26.84,59.871
	c0.28,8.79,0.13,17.689-0.03,27.109c-0.36,21.28-0.74,43.29,3.91,66.36c15.16,74.66,82.16,135.3,159.29,144.189
	c7.79,0.91,15.66,1.36,23.37,1.36c52.31,0,100.64-20.66,136.08-58.17c34.89-36.93,53.28-86.82,50.47-136.9
	c-0.55-11.14-0.33-22.54-0.1-34.6c0.05-2.43,0.09-4.84,0.13-7.25l0.01-0.47c0-7,1.73-29.88,23.99-30.23h0.46
	c18,0,24.74,16.43,25.05,30.521c0.35,19.729,7.061,35.149,14.65,49.159C1046.445,971.06,1091.775,959.06,1099.824,933.8z"/>
<path fill="#FFFFFF" d="M1146.735,675.21c-8.09,48.82-13.33,97.87-12.62,147.39c0.48,23.81-0.71,47.86-2.38,71.67
	c-0.72,10.12-3.87,18.521-9.29,25.12c-5.17,6.32-12.41,11.01-21.56,14c-0.42,0.14-0.86,0.28-1.29,0.41
	c-7.62,1.91-15,3.1-23.101,1.189c-23.81-6.189-35.479-21.899-35.95-49.76c-0.72-34.53-23.34-58.82-54.289-58.34
	c-30.48,0.48-51.91,24.29-51.91,58.57c-0.24,14.529-0.721,29.29,0,43.819c5.239,92.15-73.58,176.2-178.351,164.051
	c-64.05-7.381-121.91-58.33-134.77-121.671c-5.95-29.529-2.38-59.289-3.33-88.81c-1.19-32.39-11.67-60.25-37.38-80.96
	c-33.1-26.67-70.96-31.2-108.58-13.58c-37.86,17.86-58.34,49.06-58.1,92.39c0,19.53-6.43,37.15-26.43,43.341
	c-20,6.189-41.43,8.09-59.29-7.381c-13.33-11.189-13.1-27.149-13.57-43.1c-1.19-35.24-30.48-62.86-66.67-63.1
	c-38.1-0.24-67.15,25.72-68.82,62.15c-0.47,11.9,0,24.05-0.23,35.95c-0.48,18.33-5.48,35-19.29,47.86
	c-18.27,17.319-40.32,19.739-63.79,14.35c-0.09-0.02-0.17-0.04-0.26-0.06c-28.81-15.48-40.96-38.811-38.34-71.91
	c2.14-26.91-0.24-54.05,1.19-81.2c2.62-53.57-8.57-105.48-16.43-157.86c-9.52-63.1-0.47-123.58,27.15-180.73
	c54.76-112.86,149.29-174.06,268.11-202.39c43.1-10.24,87.62-11.19,131.67-13.57c77.15-4.29,154.3-3.34,231.209-1.43
	c63.341,1.66,127.15,4.04,188.11,24.28c130.48,43.58,223.34,123.82,257.15,262.4C1155.544,590.68,1153.164,632.83,1146.735,675.21z"
	/>
</svg>
