<?xml version="1.0" encoding="utf-8"?>
<!-- Generator: Adobe Illustrator 16.0.0, SVG Export Plug-In . SVG Version: 6.00 Build 0)  -->
<!DOCTYPE svg PUBLIC "-//W3C//DTD SVG 1.1//EN" "http://www.w3.org/Graphics/SVG/1.1/DTD/svg11.dtd">
<svg version="1.1" id="圖層_1" xmlns="http://www.w3.org/2000/svg" xmlns:xlink="http://www.w3.org/1999/xlink" x="0px" y="0px"
	 width="1024px" height="1024px" viewBox="0 0 1024 1024" enable-background="new 0 0 1024 1024" xml:space="preserve">
<g id="Blue_1_">
	<path fill="#FFFFFF" d="M131.953,465.617c6.875-8.846,15.875-17.436,27.097-24.543c11.207-7.143,24.604-12.59,39.702-15.286
		c14.796-2.675,31.447-2.316,47.976,1.944c16.524,4.288,32.913,12.719,47.022,25.09c14.115,12.335,25.774,28.86,32.76,47.988
		c1.796,4.766,3.187,9.702,4.367,14.75l0.797,4.136l0.382,2.078l0.256,1.66c0.32,2.125,0.637,4.256,0.956,6.395
		c1.051,6.819,3.074,13.478,5.904,19.804c5.738,12.586,14.706,23.987,26.333,32.144c11.591,8.125,25.381,13.224,39.632,14.102
		c1.776,0.161,3.57,0.13,5.355,0.167c0.873,0.008,1.532-0.066,2.307-0.078l1.119-0.026l1.693-0.128l3.577-0.295
		c-1.145,0.082-0.125-0.008-0.294-0.003l0.332-0.045l0.672-0.097l1.336-0.188c1.791-0.214,3.539-0.641,5.302-0.973
		c3.504-0.774,6.948-1.778,10.324-2.983c3.346-1.289,6.631-2.74,9.788-4.455c12.653-6.842,23.183-17.623,30.153-30.288
		c1.713-3.187,3.197-6.487,4.48-9.861c1.237-3.394,2.204-6.878,2.98-10.398c0.725-3.536,1.163-7.125,1.417-10.732
		c0.038-1.775,0.164-3.753,0.09-5.1l-0.002-1.116c-0.005-0.214,0.015-0.314-0.005-0.616l-0.061-0.922l-0.236-3.687l-0.224-3.873
		c-0.108-1.549-0.163-3.102-0.156-4.659c-0.078-3.109,0.02-6.221,0.186-9.333c0.413-6.213,1.127-12.423,2.455-18.516
		c2.541-12.204,6.916-23.991,12.859-34.861c11.811-21.819,30.335-39.586,51.958-50.895c10.832-5.626,22.416-9.709,34.254-11.951
		c1.409-0.307,3.111-0.549,4.736-0.79l2.456-0.354l1.222-0.167l0.929-0.091l3.574-0.332l1.565-0.144l1.114-0.056l2.226-0.106
		c5.939-0.293,11.891-0.117,17.785,0.458c23.605,2.217,46.172,11.284,64.072,25.447c17.977,14.057,31.638,32.812,39.094,53.263
		c3.708,10.185,6.118,20.761,6.991,31.313c0.161,2.115,0.319,4.222,0.478,6.325c0.065,1.725,0.365,3.406,0.533,5.111
		c0.523,3.367,1.079,6.73,1.99,9.985c3.368,13.114,10.301,24.965,19.221,34.551c8.89,9.675,20.009,16.805,31.665,21.326
		c5.847,2.253,11.858,3.836,17.881,4.763c2.966,0.492,6.15,0.771,8.816,0.921c1.251,0.136,3.062,0.103,4.772,0.113l2.153,0.011
		l2.219-0.084c11.805-0.461,22.929-3.398,32.807-7.75c9.932-4.328,18.381-10.404,25.49-16.88
		c7.078-6.544,12.577-13.736,16.876-20.705c4.212-7.03,7.188-13.866,9.288-20.029c2.083-6.176,3.207-11.685,3.924-16.195
		c0.634-4.326,0.971-7.677,1.097-10.075c-1.016-67.325-5.622-107.478-16.255-148.141c-14.633-55.538-40.741-100.726-78.706-136.085
		c-23.145-21.56-45.369-36.22-74.26-49.33c-42.037-18.972-82.036-28.286-142.406-32.771c-27.596-2.07-152.408-1.896-179.814,0.174
		c-36.853,2.759-75.556,9.831-104.816,18.8c-6.48,2.07-21.85,8.278-34.073,13.797c-77.594,35.013-130.186,98.659-152.964,185.415
		c-12.094,46.245-16.389,91.84-16.479,177.493c1.026-5.294,2.567-11.021,4.925-17.114
		C120.206,483.54,125.065,474.478,131.953,465.617z"/>
	<path fill="#FFFFFF" d="M907.069,530.771c-3.282,8.49-8.143,17.552-15.03,26.409c-6.875,8.845-15.875,17.436-27.097,24.534
		c-11.177,7.14-24.67,12.594-39.632,15.273l-2.817,0.484l-2.929,0.388c-1.69,0.224-3.303,0.451-5.506,0.557
		c-2.07,0.142-4.176,0.274-6.118,0.27c-1.984,0.042-3.989,0.062-6.005-0.043c-8.062-0.268-16.34-1.397-24.616-3.497
		c-8.291-2.049-16.494-5.288-24.44-9.429c-7.944-4.154-15.619-9.313-22.676-15.517c-7.096-6.155-13.551-13.37-19.08-21.468
		c-5.576-8.065-10.232-17.016-13.682-26.603c-1.776-4.775-3.172-9.723-4.312-14.766c-0.478-2.535-1.064-5.073-1.386-7.651
		l-0.549-3.869c0.083,0.877-0.01,0.013-0.008,0.104l-0.06-0.401l-0.124-0.805l-0.238-1.611c-1.062-6.718-3.127-13.302-5.967-19.635
		c-5.801-12.527-14.859-23.792-26.544-31.811c-11.635-8.02-25.525-12.908-39.833-13.651c-14.379-0.722-28.954,2.5-41.494,9.456
		c-12.617,6.93-23.026,17.837-29.896,30.549c-3.411,6.377-5.889,13.239-7.3,20.317c-0.76,3.529-1.1,7.137-1.331,10.742
		c-0.075,1.808-0.131,3.617-0.058,5.432c-0.011,0.907,0.032,1.814,0.115,2.722l0.231,3.5l0.224,3.685l0.054,0.922l0.029,1.229
		l0.043,2.576c0.091,3.578-0.107,6.521-0.238,9.665c-0.461,6.214-1.293,12.406-2.606,18.5c-1.363,6.08-3.106,12.072-5.295,17.893
		c-2.236,5.801-4.848,11.444-7.844,16.869c-11.986,21.728-30.659,39.347-52.38,50.479c-5.439,2.781-11.074,5.122-16.804,7.128
		c-5.763,1.911-11.622,3.469-17.546,4.567c-2.968,0.469-5.934,0.991-8.915,1.254l-5.091,0.468l-3.584,0.151l-1.882,0.067
		l-2.46,0.015c-1.613-0.007-3.341,0.02-4.85-0.049c-2.973-0.157-5.941-0.283-8.893-0.647c-23.646-2.472-46.079-11.863-63.821-26.171
		c-17.792-14.247-31.248-33.069-38.571-53.528c-3.685-10.214-5.989-20.749-6.824-31.2c-0.171-2.178-0.337-4.35-0.503-6.513
		l-0.128-1.55l-0.141-1.109l-0.249-2.224c-0.568-3.343-1.104-6.727-2.042-9.978c-3.426-13.121-10.369-25.002-19.287-34.621
		c-8.895-9.7-19.976-16.895-31.612-21.442c-11.695-4.584-23.908-6.313-35.824-5.787c-11.674,0.446-22.891,3.391-32.737,7.74
		c-9.929,4.327-18.378,10.4-25.485,16.876c-7.081,6.543-12.579,13.733-16.879,20.702c-4.211,7.026-7.187,13.863-9.289,20.023
		c-2.084,6.177-3.21,11.685-3.928,16.194c-0.66,4.481-1.001,7.992-1.119,10.374c0.999,67.74,5.597,108.022,16.268,148.821
		c14.63,55.54,40.742,100.729,78.703,136.087c23.148,21.56,45.373,36.222,74.261,49.327c42.037,18.975,82.039,28.29,142.408,32.771
		c30.923,2.242,145.372,2.242,176.295,0c60.37-4.481,100.369-13.797,142.406-32.771c77.593-35.013,130.188-98.655,152.966-185.414
		c12.14-46.424,16.424-92.19,16.481-178.489C910.974,518.943,909.432,524.672,907.069,530.771z"/>
</g>
</svg>
