<?xml version="1.0" encoding="utf-8"?>
<!-- Generator: Adobe Illustrator 16.0.0, SVG Export Plug-In . SVG Version: 6.00 Build 0)  -->
<!DOCTYPE svg PUBLIC "-//W3C//DTD SVG 1.1//EN" "http://www.w3.org/Graphics/SVG/1.1/DTD/svg11.dtd">
<svg version="1.1" id="圖層_1" xmlns="http://www.w3.org/2000/svg" xmlns:xlink="http://www.w3.org/1999/xlink" x="0px" y="0px"
	 width="100px" height="100px" viewBox="0 0 100 100" enable-background="new 0 0 100 100" xml:space="preserve">
<g>
	<circle fill="#F4D420" cx="50" cy="50" r="50"/>
	<g>
		<polygon fill="#3A3A3A" points="43.286,26.337 54.529,26.337 57.002,43.876 61.275,26.337 70.494,26.337 74.092,43.876 
			77.015,26.337 88.033,26.337 79.938,60.966 68.471,60.966 65.66,43.651 62.399,60.966 51.156,60.966 		"/>
		<g>
			<path fill="#3A3A3A" d="M45.96,45.347c0,5.05-1.186,9.325-3.555,12.828c-2.731,4.07-6.646,6.105-11.746,6.105
				c-5.255,0-9.326-1.805-12.21-5.41v17.608h-4.482V35.688c0-1.391,0-4.08,0.055-8.347h4.455l-0.027,4.404
				c2.987-3.604,6.903-5.408,11.747-5.408c5.048,0,9.041,2.035,11.978,6.104C44.697,35.996,45.96,40.299,45.96,45.347z
				 M41.299,45.27c0-3.914-0.928-7.29-2.782-10.124c-2.113-3.296-4.664-4.945-8.321-4.945c-3.659,0-6.569,1.598-8.732,4.792
				c-1.959,2.781-2.937,6.079-2.937,9.891c0,4.174,0.953,7.703,2.859,10.587c2.215,3.246,5.306,4.869,9.274,4.869
				c3.709,0,6.208-1.623,8.167-4.869C40.474,52.74,41.299,49.34,41.299,45.27z"/>
		</g>
	</g>
</g>
</svg>
