<?xml version="1.0" encoding="utf-8"?>
<!-- Generator: Adobe Illustrator 16.0.0, SVG Export Plug-In . SVG Version: 6.00 Build 0)  -->
<!DOCTYPE svg PUBLIC "-//W3C//DTD SVG 1.1//EN" "http://www.w3.org/Graphics/SVG/1.1/DTD/svg11.dtd">
<svg version="1.1" id="圖層_1" xmlns="http://www.w3.org/2000/svg" xmlns:xlink="http://www.w3.org/1999/xlink" x="0px" y="0px"
	 width="128px" height="128px" viewBox="0 0 128 128" enable-background="new 0 0 128 128" xml:space="preserve">
<path id="Setting_1_" fill="#FFFFFF" d="M111.926,74.156V55.858l-14.205,1.693c-1.012-3.628-2.584-7.02-4.654-10.052l11.611-9.139
	L91.738,25.42l-9.449,12.007c-3.023-1.797-6.34-3.147-9.875-3.939l1.826-15.314H55.941l1.816,15.238
	c-3.564,0.766-6.908,2.104-9.962,3.889l-9.352-11.883l-12.939,12.94l11.421,8.988c-2.12,3.062-3.731,6.491-4.76,10.169l-13.91-1.658
	v18.298l13.164-1.568c0.702,4.02,2.103,7.791,4.084,11.197l-10,7.869l12.939,12.939l7.547-9.592
	c3.405,2.285,7.252,3.947,11.375,4.885l-1.425,11.955H74.24l-1.434-12.031c4.092-0.969,7.906-2.646,11.277-4.943l7.654,9.725
	l12.939-12.939l-10.205-8.031c1.936-3.371,3.301-7.1,3.99-11.07L111.926,74.156z M65.09,78.764c-6.661,0-12.063-5.398-12.063-12.063
	s5.401-12.064,12.063-12.064c6.662,0,12.063,5.4,12.063,12.064S71.752,78.764,65.09,78.764z"/>
</svg>
